<svg xmlns="http://www.w3.org/2000/svg" xmlns:xlink="http://www.w3.org/1999/xlink" width="500" zoomAndPan="magnify" viewBox="0 0 375 599.999999" height="800" preserveAspectRatio="xMidYMid meet" version="1.0"><defs><g/></defs><g fill="#faff00" fill-opacity="1"><g transform="translate(28.622881, 555.980057)"><g><path d="M 132.296875 4.203125 C 104.296875 4.203125 78.394531 -1.863281 54.59375 -14 C 30.800781 -26.132812 11.4375 -43.398438 -3.5 -65.796875 L 27.296875 -100.796875 C 54.367188 -60.660156 89.601562 -40.59375 133 -40.59375 C 193.664062 -40.59375 224 -76.53125 224 -148.40625 L 224 -445.203125 L 44.796875 -445.203125 L 44.796875 -490 L 275.09375 -490 L 275.09375 -150.5 C 275.09375 -99.164062 263.078125 -60.546875 239.046875 -34.640625 C 215.015625 -8.742188 179.429688 4.203125 132.296875 4.203125 Z M 132.296875 4.203125 "/></g></g></g><g fill="#004aad" fill-opacity="1"><g transform="translate(59.558822, 525.044115)"><g><path d="M 132.296875 4.203125 C 104.296875 4.203125 78.394531 -1.863281 54.59375 -14 C 30.800781 -26.132812 11.4375 -43.398438 -3.5 -65.796875 L 27.296875 -100.796875 C 54.367188 -60.660156 89.601562 -40.59375 133 -40.59375 C 193.664062 -40.59375 224 -76.53125 224 -148.40625 L 224 -445.203125 L 44.796875 -445.203125 L 44.796875 -490 L 275.09375 -490 L 275.09375 -150.5 C 275.09375 -99.164062 263.078125 -60.546875 239.046875 -34.640625 C 215.015625 -8.742188 179.429688 4.203125 132.296875 4.203125 Z M 132.296875 4.203125 "/></g></g></g></svg>