<svg xmlns="http://www.w3.org/2000/svg" xmlns:xlink="http://www.w3.org/1999/xlink" width="1080" zoomAndPan="magnify" viewBox="0 0 810 809.999993" height="1080" preserveAspectRatio="xMidYMid meet" version="1.0"><defs><g/></defs><rect x="-81" width="972" fill="#ffffff" y="-80.999999" height="971.999992" fill-opacity="1"/><rect x="-81" width="972" fill="#ffffff" y="-80.999999" height="971.999992" fill-opacity="1"/><rect x="-81" width="972" fill="#ffffff" y="-80.999999" height="971.999992" fill-opacity="1"/><g fill="#000000" fill-opacity="1"><g transform="translate(419.258452, 646.815168)"><g><path d="M -33.859375 80.390625 L -29.84375 44.4375 L -77.15625 39.15625 L -76.234375 30.796875 L -28.921875 36.078125 L -24.578125 -2.75 L -14.90625 -1.671875 L -25.125 89.828125 L -87.875 82.828125 L -86.9375 74.46875 Z M -33.859375 80.390625 "/></g></g></g><g fill="#000000" fill-opacity="1"><g transform="translate(346.907438, 638.145459)"><g><path d="M -39.703125 44.734375 C -43.347656 48.347656 -47.617188 50.523438 -52.515625 51.265625 C -57.410156 52.003906 -62.863281 51.28125 -68.875 49.09375 L -65.765625 40.5625 L -63.703125 41.453125 C -56.867188 43.941406 -50.75 43.789062 -45.34375 41 C -39.9375 38.21875 -35.847656 33.035156 -33.078125 25.453125 L -21 -7.65625 L -12.234375 -4.453125 L -35.9375 60.546875 L -44.34375 57.46875 Z M -39.703125 44.734375 "/></g></g></g><g fill="#000000" fill-opacity="1"><g transform="translate(305.640945, 626.237103)"><g><path d="M -34.046875 -23.421875 C -28.492188 -19.734375 -24.328125 -15.144531 -21.546875 -9.65625 C -18.765625 -4.175781 -17.570312 1.640625 -17.96875 7.796875 C -18.375 13.953125 -20.445312 19.84375 -24.1875 25.46875 C -27.925781 31.082031 -32.554688 35.265625 -38.078125 38.015625 C -43.609375 40.773438 -49.425781 41.910156 -55.53125 41.421875 C -61.632812 40.941406 -67.460938 38.859375 -73.015625 35.171875 C -78.554688 31.484375 -82.726562 26.914062 -85.53125 21.46875 C -88.34375 16.03125 -89.523438 10.242188 -89.078125 4.109375 C -88.628906 -2.015625 -86.535156 -7.882812 -82.796875 -13.5 C -79.054688 -19.125 -74.445312 -23.328125 -68.96875 -26.109375 C -63.488281 -28.890625 -57.679688 -30.054688 -51.546875 -29.609375 C -45.421875 -29.171875 -39.585938 -27.109375 -34.046875 -23.421875 Z M -38.625 -16.53125 C -42.707031 -19.25 -46.988281 -20.753906 -51.46875 -21.046875 C -55.957031 -21.347656 -60.253906 -20.390625 -64.359375 -18.171875 C -68.472656 -15.953125 -71.988281 -12.648438 -74.90625 -8.265625 C -77.820312 -3.890625 -79.503906 0.617188 -79.953125 5.265625 C -80.410156 9.921875 -79.632812 14.257812 -77.625 18.28125 C -75.625 22.300781 -72.582031 25.671875 -68.5 28.390625 C -64.40625 31.109375 -60.113281 32.617188 -55.625 32.921875 C -51.132812 33.222656 -46.816406 32.273438 -42.671875 30.078125 C -38.523438 27.878906 -34.992188 24.59375 -32.078125 20.21875 C -29.160156 15.832031 -27.492188 11.300781 -27.078125 6.625 C -26.660156 1.957031 -27.457031 -2.382812 -29.46875 -6.40625 C -31.476562 -10.4375 -34.53125 -13.8125 -38.625 -16.53125 Z M -38.625 -16.53125 "/></g></g></g><g fill="#000000" fill-opacity="1"><g transform="translate(245.997118, 589.43799)"><g><path d="M -84.546875 6.5625 C -90.023438 -0.164062 -92.425781 -7.109375 -91.75 -14.265625 C -91.082031 -21.429688 -87.007812 -28.0625 -79.53125 -34.15625 L -48.40625 -59.484375 L -42.515625 -52.234375 L -72.921875 -27.484375 C -78.492188 -22.953125 -81.609375 -18.101562 -82.265625 -12.9375 C -82.921875 -7.769531 -81.144531 -2.597656 -76.9375 2.578125 C -72.238281 8.347656 -66.796875 11.519531 -60.609375 12.09375 C -54.429688 12.675781 -48.316406 10.503906 -42.265625 5.578125 L -14.109375 -17.34375 L -8.21875 -10.09375 L -61.875 33.578125 L -67.53125 26.640625 L -57.640625 18.59375 C -62.515625 19.269531 -67.273438 18.59375 -71.921875 16.5625 C -76.578125 14.53125 -80.785156 11.195312 -84.546875 6.5625 Z M -84.546875 6.5625 "/></g></g></g><g fill="#000000" fill-opacity="1"><g transform="translate(197.314588, 528.251689)"><g><path d="M -24.578125 -43.125 C -22.410156 -42.1875 -20.40625 -40.71875 -18.5625 -38.71875 C -16.726562 -36.726562 -15.222656 -34.460938 -14.046875 -31.921875 C -11.316406 -26.023438 -10.804688 -20.75 -12.515625 -16.09375 C -14.234375 -11.445312 -18 -7.78125 -23.8125 -5.09375 L -61.765625 12.46875 L -56.5625 23.703125 L -63.734375 27.015625 L -68.9375 15.78125 L -82.671875 22.140625 L -86.578125 13.6875 L -72.84375 7.328125 L -81.6875 -11.78125 L -74.515625 -15.09375 L -65.671875 4.015625 L -28.203125 -13.328125 C -24.453125 -15.054688 -22.035156 -17.304688 -20.953125 -20.078125 C -19.867188 -22.859375 -20.132812 -26 -21.75 -29.5 C -22.5625 -31.25 -23.625 -32.8125 -24.9375 -34.1875 C -26.257812 -35.5625 -27.710938 -36.601562 -29.296875 -37.3125 Z M -24.578125 -43.125 "/></g></g></g><g fill="#000000" fill-opacity="1"><g transform="translate(176.573581, 489.774462)"><g><path d="M -45.640625 -65.484375 L -34.125 -8.765625 C -27.1875 -10.710938 -22.039062 -14.578125 -18.6875 -20.359375 C -15.34375 -26.140625 -14.429688 -32.769531 -15.953125 -40.25 C -16.804688 -44.457031 -18.34375 -48.171875 -20.5625 -51.390625 C -22.789062 -54.609375 -25.628906 -57.207031 -29.078125 -59.1875 L -24.1875 -65.5625 C -19.957031 -63.28125 -16.441406 -60.070312 -13.640625 -55.9375 C -10.835938 -51.8125 -8.890625 -47.046875 -7.796875 -41.640625 C -6.378906 -34.671875 -6.601562 -28.203125 -8.46875 -22.234375 C -10.34375 -16.265625 -13.597656 -11.238281 -18.234375 -7.15625 C -22.867188 -3.082031 -28.492188 -0.375 -35.109375 0.96875 C -41.722656 2.3125 -47.941406 2.070312 -53.765625 0.25 C -59.597656 -1.5625 -64.484375 -4.679688 -68.421875 -9.109375 C -72.367188 -13.546875 -74.984375 -18.90625 -76.265625 -25.1875 C -77.535156 -31.46875 -77.210938 -37.394531 -75.296875 -42.96875 C -73.390625 -48.539062 -70.125 -53.273438 -65.5 -57.171875 C -60.882812 -61.066406 -55.222656 -63.691406 -48.515625 -65.046875 Z M -68.40625 -26.78125 C -67.070312 -20.25 -63.867188 -15.191406 -58.796875 -11.609375 C -53.734375 -8.035156 -47.785156 -6.625 -40.953125 -7.375 L -50.71875 -55.453125 C -57.300781 -53.503906 -62.226562 -49.890625 -65.5 -44.609375 C -68.78125 -39.335938 -69.75 -33.394531 -68.40625 -26.78125 Z M -68.40625 -26.78125 "/></g></g></g><g fill="#000000" fill-opacity="1"><g transform="translate(160.70798, 424.389081)"><g><path d="M -64.828125 -54.6875 C -64.003906 -63.320312 -60.835938 -69.953125 -55.328125 -74.578125 C -49.816406 -79.210938 -42.257812 -81.070312 -32.65625 -80.15625 L 7.28125 -76.34375 L 6.390625 -67.0625 L -32.640625 -70.78125 C -39.796875 -71.46875 -45.414062 -70.195312 -49.5 -66.96875 C -53.59375 -63.738281 -55.957031 -58.804688 -56.59375 -52.171875 C -57.300781 -44.753906 -55.65625 -38.675781 -51.65625 -33.9375 C -47.664062 -29.195312 -41.789062 -26.457031 -34.03125 -25.71875 L 2.125 -22.265625 L 1.234375 -12.953125 L -67.640625 -19.515625 L -66.796875 -28.4375 L -54.109375 -27.234375 C -58.046875 -30.160156 -60.957031 -33.984375 -62.84375 -38.703125 C -64.726562 -43.421875 -65.390625 -48.75 -64.828125 -54.6875 Z M -64.828125 -54.6875 "/></g></g></g><g fill="#000000" fill-opacity="1"><g transform="translate(165.89179, 348.410314)"><g><path d="M -59.421875 -108.625 L 30.1875 -69.9375 L 26.640625 -61.703125 L 14.078125 -67.125 C 17.242188 -62.71875 19.039062 -57.910156 19.46875 -52.703125 C 19.894531 -47.503906 18.960938 -42.25 16.671875 -36.9375 C 14.097656 -30.976562 10.398438 -26.171875 5.578125 -22.515625 C 0.753906 -18.867188 -4.703125 -16.738281 -10.796875 -16.125 C -16.898438 -15.507812 -23.09375 -16.554688 -29.375 -19.265625 C -35.65625 -21.972656 -40.65625 -25.753906 -44.375 -30.609375 C -48.101562 -35.472656 -50.269531 -40.90625 -50.875 -46.90625 C -51.488281 -52.90625 -50.507812 -58.882812 -47.9375 -64.84375 C -45.707031 -69.988281 -42.632812 -74.171875 -38.71875 -77.390625 C -34.800781 -80.617188 -30.210938 -82.679688 -24.953125 -83.578125 L -63.125 -100.046875 Z M 9.375 -40.9375 C 11.289062 -45.363281 11.992188 -49.8125 11.484375 -54.28125 C 10.972656 -58.757812 9.269531 -62.835938 6.375 -66.515625 C 3.476562 -70.203125 -0.382812 -73.09375 -5.21875 -75.1875 C -10.039062 -77.269531 -14.785156 -78.101562 -19.453125 -77.6875 C -24.128906 -77.269531 -28.265625 -75.710938 -31.859375 -73.015625 C -35.460938 -70.316406 -38.222656 -66.753906 -40.140625 -62.328125 C -42.085938 -57.816406 -42.804688 -53.328125 -42.296875 -48.859375 C -41.796875 -44.390625 -40.09375 -40.3125 -37.1875 -36.625 C -34.289062 -32.9375 -30.429688 -30.050781 -25.609375 -27.96875 C -20.773438 -25.875 -16.023438 -25.035156 -11.359375 -25.453125 C -6.691406 -25.878906 -2.554688 -27.4375 1.046875 -30.125 C 4.648438 -32.820312 7.425781 -36.425781 9.375 -40.9375 Z M 9.375 -40.9375 "/></g></g></g><g fill="#000000" fill-opacity="1"><g transform="translate(199.201036, 276.130444)"><g/></g></g><g fill="#000000" fill-opacity="1"><g transform="translate(216.462722, 252.03115)"><g><path d="M 9.8125 -9.90625 C 8.519531 -8.476562 6.898438 -7.726562 4.953125 -7.65625 C 3.003906 -7.582031 1.28125 -8.222656 -0.21875 -9.578125 C -1.71875 -10.929688 -2.519531 -12.566406 -2.625 -14.484375 C -2.726562 -16.410156 -2.132812 -18.085938 -0.84375 -19.515625 C 0.457031 -20.960938 2.082031 -21.75 4.03125 -21.875 C 5.976562 -22 7.703125 -21.382812 9.203125 -20.03125 C 10.703125 -18.675781 11.503906 -17.007812 11.609375 -15.03125 C 11.710938 -13.0625 11.113281 -11.351562 9.8125 -9.90625 Z M 9.8125 -9.90625 "/></g></g></g><g fill="#000000" fill-opacity="1"><g transform="translate(231.592778, 234.589281)"><g/></g></g><g fill="#000000" fill-opacity="1"><g transform="translate(246.903812, 214.338277)"><g><path d="M 41.828125 -76.40625 C 47.765625 -78.113281 53.101562 -78.023438 57.84375 -76.140625 C 62.59375 -74.265625 66.425781 -70.617188 69.34375 -65.203125 C 73.070312 -58.265625 73.375 -51.539062 70.25 -45.03125 C 67.132812 -38.519531 60.554688 -32.566406 50.515625 -27.171875 L 13.21875 -7.109375 L -30.390625 -88.203125 L 4.578125 -107.015625 C 13.617188 -111.867188 21.601562 -113.820312 28.53125 -112.875 C 35.46875 -111.925781 40.722656 -108.128906 44.296875 -101.484375 C 46.703125 -97.003906 47.644531 -92.609375 47.125 -88.296875 C 46.613281 -83.984375 44.847656 -80.019531 41.828125 -76.40625 Z M -18.03125 -85.75 L -2.203125 -56.3125 L 23.625 -70.203125 C 30.195312 -73.734375 34.582031 -77.707031 36.78125 -82.125 C 38.988281 -86.550781 38.800781 -91.160156 36.21875 -95.953125 C 33.644531 -100.742188 29.90625 -103.4375 25 -104.03125 C 20.101562 -104.632812 14.367188 -103.171875 7.796875 -99.640625 Z M 46.59375 -34.171875 C 53.863281 -38.078125 58.6875 -42.257812 61.0625 -46.71875 C 63.4375 -51.1875 63.207031 -56.046875 60.375 -61.296875 C 54.9375 -71.421875 44.878906 -72.535156 30.203125 -64.640625 L 1.59375 -49.265625 L 17.984375 -18.796875 Z M 46.59375 -34.171875 "/></g></g></g><g fill="#000000" fill-opacity="1"><g transform="translate(322.552098, 173.246469)"><g><path d="M 23.890625 -75.34375 C 32.765625 -76.988281 39.984375 -76.03125 45.546875 -72.46875 C 51.117188 -68.90625 54.710938 -62.769531 56.328125 -54.0625 L 64.15625 -11.890625 L 55.359375 -10.265625 L 53.390625 -20.859375 C 51.972656 -16.941406 49.441406 -13.617188 45.796875 -10.890625 C 42.160156 -8.171875 37.582031 -6.300781 32.0625 -5.28125 C 24.488281 -3.875 18.117188 -4.5625 12.953125 -7.34375 C 7.796875 -10.132812 4.664062 -14.503906 3.5625 -20.453125 C 2.488281 -26.234375 3.71875 -31.273438 7.25 -35.578125 C 10.78125 -39.890625 17.113281 -42.894531 26.25 -44.59375 L 47.84375 -48.59375 L 47.078125 -52.75 C 45.992188 -58.601562 43.53125 -62.757812 39.6875 -65.21875 C 35.84375 -67.675781 30.773438 -68.320312 24.484375 -67.15625 C 20.171875 -66.351562 16.160156 -64.875 12.453125 -62.71875 C 8.742188 -60.5625 5.703125 -57.96875 3.328125 -54.9375 L -2.09375 -61.015625 C 0.820312 -64.585938 4.546875 -67.617188 9.078125 -70.109375 C 13.609375 -72.597656 18.546875 -74.34375 23.890625 -75.34375 Z M 32.15625 -12.78125 C 37.320312 -13.738281 41.535156 -15.742188 44.796875 -18.796875 C 48.066406 -21.859375 50.191406 -25.800781 51.171875 -30.625 L 49.109375 -41.75 L 27.765625 -37.796875 C 16.117188 -35.640625 11.050781 -30.507812 12.5625 -22.40625 C 13.289062 -18.4375 15.378906 -15.585938 18.828125 -13.859375 C 22.273438 -12.128906 26.71875 -11.769531 32.15625 -12.78125 Z M 32.15625 -12.78125 "/></g></g></g><g fill="#000000" fill-opacity="1"><g transform="translate(387.566289, 159.89851)"><g><path d="M 41.515625 4.09375 C 34.691406 3.53125 28.71875 1.546875 23.59375 -1.859375 C 18.46875 -5.273438 14.59375 -9.800781 11.96875 -15.4375 C 9.351562 -21.070312 8.328125 -27.25 8.890625 -33.96875 C 9.441406 -40.695312 11.46875 -46.601562 14.96875 -51.6875 C 18.476562 -56.769531 23.039062 -60.570312 28.65625 -63.09375 C 34.269531 -65.625 40.488281 -66.609375 47.3125 -66.046875 C 53.25 -65.554688 58.457031 -63.957031 62.9375 -61.25 C 67.425781 -58.539062 70.84375 -54.847656 73.1875 -50.171875 L 65.84375 -46.03125 C 63.851562 -49.632812 61.179688 -52.429688 57.828125 -54.421875 C 54.484375 -56.410156 50.753906 -57.578125 46.640625 -57.921875 C 41.660156 -58.328125 37.085938 -57.582031 32.921875 -55.6875 C 28.765625 -53.789062 25.398438 -50.878906 22.828125 -46.953125 C 20.253906 -43.023438 18.753906 -38.4375 18.328125 -33.1875 C 17.878906 -27.863281 18.601562 -23.078125 20.5 -18.828125 C 22.394531 -14.585938 25.238281 -11.179688 29.03125 -8.609375 C 32.820312 -6.046875 37.207031 -4.5625 42.1875 -4.15625 C 46.300781 -3.8125 50.171875 -4.328125 53.796875 -5.703125 C 57.429688 -7.078125 60.523438 -9.378906 63.078125 -12.609375 L 69.640625 -7.296875 C 66.554688 -3.066406 62.5625 0.0078125 57.65625 1.9375 C 52.75 3.863281 47.367188 4.582031 41.515625 4.09375 Z M 41.515625 4.09375 "/></g></g></g><g fill="#000000" fill-opacity="1"><g transform="translate(450.292579, 163.219362)"><g><path d="M 48.25 -19.3125 L 27.78125 -10.84375 L 21 7.6875 L 12.21875 4.46875 L 45.78125 -87.1875 L 54.5625 -83.96875 L 31.8125 -21.828125 L 83.578125 -43.078125 L 94.453125 -39.09375 L 56.921875 -22.71875 L 73.234375 26.828125 L 62.5 22.890625 Z M 48.25 -19.3125 "/></g></g></g><g fill="#000000" fill-opacity="1"><g transform="translate(514.143377, 184.834545)"><g><path d="M 77.90625 17.46875 L 31.09375 -16.59375 C 27.300781 -10.46875 26.117188 -4.144531 27.546875 2.375 C 28.972656 8.90625 32.773438 14.414062 38.953125 18.90625 C 42.421875 21.425781 46.0625 23.125 49.875 24 C 53.695312 24.882812 57.546875 24.894531 61.421875 24.03125 L 62.109375 32.015625 C 57.460938 33.191406 52.707031 33.203125 47.84375 32.046875 C 42.988281 30.898438 38.328125 28.703125 33.859375 25.453125 C 28.117188 21.273438 23.921875 16.347656 21.265625 10.671875 C 18.617188 5.003906 17.625 -0.890625 18.28125 -7.015625 C 18.945312 -13.148438 21.269531 -18.945312 25.25 -24.40625 C 29.21875 -29.863281 33.960938 -33.894531 39.484375 -36.5 C 45.015625 -39.101562 50.726562 -40.097656 56.625 -39.484375 C 62.519531 -38.878906 68.0625 -36.691406 73.25 -32.921875 C 78.425781 -29.148438 82.191406 -24.5625 84.546875 -19.15625 C 86.910156 -13.757812 87.703125 -8.066406 86.921875 -2.078125 C 86.140625 3.910156 83.738281 9.675781 79.71875 15.21875 Z M 68.53125 -26.4375 C 63.132812 -30.363281 57.359375 -31.9375 51.203125 -31.15625 C 45.054688 -30.375 39.71875 -27.394531 35.1875 -22.21875 L 74.875 6.65625 C 78.40625 0.75 79.59375 -5.25 78.4375 -11.34375 C 77.289062 -17.4375 73.988281 -22.46875 68.53125 -26.4375 Z M 68.53125 -26.4375 "/></g></g></g><g fill="#000000" fill-opacity="1"><g transform="translate(570.006489, 222.340703)"><g><path d="M 84.734375 -3.4375 C 89.960938 3.488281 92.109375 10.515625 91.171875 17.640625 C 90.234375 24.773438 85.914062 31.242188 78.21875 37.046875 L 46.1875 61.21875 L 40.5625 53.765625 L 71.859375 30.15625 C 77.597656 25.820312 80.890625 21.082031 81.734375 15.9375 C 82.578125 10.800781 80.992188 5.570312 76.984375 0.25 C 72.492188 -5.695312 67.171875 -9.070312 61.015625 -9.875 C 54.867188 -10.675781 48.679688 -8.726562 42.453125 -4.03125 L 13.46875 17.84375 L 7.84375 10.390625 L 63.078125 -31.28125 L 68.46875 -24.140625 L 58.28125 -16.453125 C 63.175781 -16.960938 67.910156 -16.113281 72.484375 -13.90625 C 77.054688 -11.695312 81.140625 -8.207031 84.734375 -3.4375 Z M 84.734375 -3.4375 "/></g></g></g><g fill="#000000" fill-opacity="1"><g transform="translate(617.491363, 281.878124)"><g><path d="M 117.171875 39.984375 L 24.953125 71.96875 L 22.015625 63.515625 L 34.953125 59.03125 C 29.628906 57.894531 25.054688 55.554688 21.234375 52.015625 C 17.410156 48.472656 14.550781 43.96875 12.65625 38.5 C 10.519531 32.363281 10 26.320312 11.09375 20.375 C 12.195312 14.425781 14.785156 9.164062 18.859375 4.59375 C 22.941406 0.03125 28.210938 -3.367188 34.671875 -5.609375 C 41.140625 -7.859375 47.390625 -8.445312 53.421875 -7.375 C 59.453125 -6.3125 64.710938 -3.78125 69.203125 0.21875 C 73.703125 4.226562 77.019531 9.300781 79.15625 15.4375 C 80.988281 20.738281 81.546875 25.898438 80.828125 30.921875 C 80.109375 35.953125 78.109375 40.570312 74.828125 44.78125 L 114.109375 31.15625 Z M 20.734375 36.53125 C 22.316406 41.082031 24.800781 44.832031 28.1875 47.78125 C 31.582031 50.738281 35.59375 52.597656 40.21875 53.359375 C 44.851562 54.117188 49.65625 53.640625 54.625 51.921875 C 59.59375 50.191406 63.65625 47.597656 66.8125 44.140625 C 69.976562 40.679688 71.976562 36.738281 72.8125 32.3125 C 73.644531 27.894531 73.269531 23.410156 71.6875 18.859375 C 70.082031 14.210938 67.582031 10.410156 64.1875 7.453125 C 60.800781 4.503906 56.789062 2.644531 52.15625 1.875 C 47.53125 1.113281 42.734375 1.597656 37.765625 3.328125 C 32.796875 5.046875 28.726562 7.632812 25.5625 11.09375 C 22.40625 14.5625 20.410156 18.503906 19.578125 22.921875 C 18.742188 27.347656 19.128906 31.882812 20.734375 36.53125 Z M 20.734375 36.53125 "/></g></g></g><g fill="#000000" fill-opacity="1"><g transform="translate(641.736139, 357.681122)"><g/></g></g><g fill="#000000" fill-opacity="1"><g transform="translate(645.280231, 387.112108)"><g><path d="M -0.546875 13.9375 C -0.566406 12.007812 0.113281 10.359375 1.5 8.984375 C 2.894531 7.617188 4.601562 6.929688 6.625 6.921875 C 8.644531 6.898438 10.335938 7.5625 11.703125 8.90625 C 13.078125 10.257812 13.773438 11.898438 13.796875 13.828125 C 13.804688 15.765625 13.132812 17.4375 11.78125 18.84375 C 10.4375 20.257812 8.753906 20.976562 6.734375 21 C 4.710938 21.007812 2.992188 20.316406 1.578125 18.921875 C 0.171875 17.535156 -0.535156 15.875 -0.546875 13.9375 Z M -0.546875 13.9375 "/></g></g></g><g fill="#000000" fill-opacity="1"><g transform="translate(645.900644, 410.193519)"><g/></g></g><g fill="#000000" fill-opacity="1"><g transform="translate(654.322691, 433.941563)"><g><path d="M 26.6875 166.609375 L -44.84375 100.859375 L -40.671875 91.46875 L 42.03125 98.734375 L -18.703125 42.078125 L -14.59375 32.8125 L 82.15625 41.859375 L 78.109375 50.984375 L -5.046875 43.09375 L 56.140625 100.390625 L 52.453125 108.671875 L -31.28125 101.125 L 30.484375 158.09375 Z M 26.6875 166.609375 "/></g></g></g><g fill="#000000" fill-opacity="1"><g transform="translate(598.833458, 550.663565)"><g><path d="M -31.5 73.359375 L 10.578125 33.609375 C 5.253906 28.742188 -0.738281 26.414062 -7.40625 26.625 C -14.082031 26.84375 -20.195312 29.570312 -25.75 34.8125 C -28.875 37.757812 -31.210938 41.023438 -32.765625 44.609375 C -34.328125 48.191406 -35.039062 51.972656 -34.90625 55.953125 L -42.890625 55.171875 C -43.191406 50.367188 -42.328125 45.6875 -40.296875 41.125 C -38.273438 36.5625 -35.257812 32.382812 -31.25 28.59375 C -26.082031 23.71875 -20.46875 20.5 -14.40625 18.9375 C -8.34375 17.382812 -2.359375 17.492188 3.546875 19.265625 C 9.453125 21.046875 14.722656 24.394531 19.359375 29.3125 C 23.992188 34.21875 27.082031 39.625 28.625 45.53125 C 30.164062 51.4375 30.09375 57.234375 28.40625 62.921875 C 26.726562 68.609375 23.554688 73.65625 18.890625 78.0625 C 14.234375 82.457031 9.035156 85.316406 3.296875 86.640625 C -2.441406 87.960938 -8.1875 87.6875 -13.9375 85.8125 C -19.6875 83.945312 -24.910156 80.53125 -29.609375 75.5625 Z M 13.390625 72.234375 C 18.242188 67.648438 20.847656 62.257812 21.203125 56.0625 C 21.566406 49.875 19.617188 44.078125 15.359375 38.671875 L -20.3125 72.359375 C -15.15625 76.921875 -9.472656 79.195312 -3.265625 79.1875 C 2.929688 79.1875 8.484375 76.867188 13.390625 72.234375 Z M 13.390625 72.234375 "/></g></g></g><g fill="#000000" fill-opacity="1"><g transform="translate(551.708924, 598.679507)"><g><path d="M -12.5625 84.09375 C -18.363281 86.976562 -24.273438 88.273438 -30.296875 87.984375 C -36.316406 87.703125 -41.851562 85.828125 -46.90625 82.359375 C -51.957031 78.898438 -56.007812 74.109375 -59.0625 67.984375 C -62.101562 61.859375 -63.476562 55.734375 -63.1875 49.609375 C -62.894531 43.492188 -61.054688 37.925781 -57.671875 32.90625 C -54.285156 27.894531 -49.691406 23.945312 -43.890625 21.0625 C -38.703125 18.488281 -33.5 17.273438 -28.28125 17.421875 C -23.0625 17.566406 -18.160156 19.101562 -13.578125 22.03125 L -19.671875 9.78125 L -11.65625 5.796875 L 31.78125 93.203125 L 23.421875 97.359375 L 4.921875 60.125 C 4.316406 65.414062 2.507812 70.109375 -0.5 74.203125 C -3.507812 78.296875 -7.53125 81.59375 -12.5625 84.09375 Z M -39.609375 28.1875 C -43.929688 30.332031 -47.359375 33.285156 -49.890625 37.046875 C -52.421875 40.816406 -53.773438 45.039062 -53.953125 49.71875 C -54.128906 54.40625 -53.046875 59.109375 -50.703125 63.828125 C -48.359375 68.535156 -45.265625 72.238281 -41.421875 74.9375 C -37.585938 77.632812 -33.40625 79.101562 -28.875 79.34375 C -24.351562 79.582031 -19.929688 78.628906 -15.609375 76.484375 C -11.203125 74.296875 -7.75 71.332031 -5.25 67.59375 C -2.757812 63.863281 -1.425781 59.65625 -1.25 54.96875 C -1.082031 50.28125 -2.171875 45.582031 -4.515625 40.875 C -6.859375 36.15625 -9.945312 32.445312 -13.78125 29.75 C -17.613281 27.0625 -21.773438 25.582031 -26.265625 25.3125 C -30.753906 25.039062 -35.203125 26 -39.609375 28.1875 Z M -39.609375 28.1875 "/></g></g></g><g fill="#000000" fill-opacity="1"><g transform="translate(479.59859, 632.357529)"><g/></g></g><g fill="#000000" fill-opacity="1"><g transform="translate(450.856207, 639.611368)"><g><path d="M -13.90625 1.21875 C -12 0.957031 -10.273438 1.429688 -8.734375 2.640625 C -7.191406 3.847656 -6.285156 5.453125 -6.015625 7.453125 C -5.742188 9.453125 -6.191406 11.21875 -7.359375 12.75 C -8.523438 14.28125 -10.0625 15.175781 -11.96875 15.4375 C -13.882812 15.695312 -15.628906 15.242188 -17.203125 14.078125 C -18.773438 12.921875 -19.695312 11.34375 -19.96875 9.34375 C -20.238281 7.34375 -19.773438 5.550781 -18.578125 3.96875 C -17.378906 2.394531 -15.820312 1.476562 -13.90625 1.21875 Z M -13.90625 1.21875 "/></g></g></g><g fill="#000000" fill-opacity="1"><g transform="translate(428.040532, 643.158511)"><g/></g></g></svg>