<svg version="1.1" id="Layer_1" xmlns="http://www.w3.org/2000/svg" xmlns:xlink="http://www.w3.org/1999/xlink" x="0px" y="0px"
	 width="100%" viewBox="0 0 1024 1024" enable-background="new 0 0 1024 1024" xml:space="preserve">
<path fill="#000000" opacity="1.000000" stroke="none" 
	d="
M863.799438,757.683350 
	C861.889099,761.496582 860.174683,759.281311 858.650146,757.887939 
	C850.412842,750.359314 842.236938,742.763489 834.023193,735.209045 
	C814.286804,717.056885 794.576843,698.875671 774.757141,680.814880 
	C772.069275,678.365601 770.789307,676.214233 772.839661,672.714905 
	C774.975281,669.070007 775.067078,664.127319 781.753906,664.810242 
	C806.248718,667.312134 830.795593,669.306946 855.326538,671.450806 
	C862.941589,672.116272 870.568237,672.648804 879.243042,673.324280 
	C872.473206,666.908447 866.355103,661.033203 860.153259,655.247681 
	C842.737488,639.000793 825.461426,622.596863 807.740417,606.689148 
	C802.687134,602.153076 806.282104,598.853394 807.458496,594.848999 
	C808.599976,590.963684 811.097473,590.402588 814.703491,590.757751 
	C841.860474,593.432861 869.030945,595.971252 896.197205,598.552856 
	C907.119690,599.590820 918.042175,600.628906 928.964294,601.670471 
	C929.942749,601.763733 930.976501,601.705017 931.882629,602.762756 
	C931.638916,606.358887 929.632324,609.478027 928.007385,612.689758 
	C926.879272,614.919312 924.548462,614.384766 922.619080,614.208679 
	C907.050171,612.787659 891.486328,611.310425 875.923584,609.823059 
	C859.232605,608.227966 842.544434,606.603149 825.757812,604.981873 
	C825.543274,607.339905 827.172241,607.936707 828.150940,608.857178 
	C850.839783,630.195007 873.545898,651.514648 896.309082,672.773071 
	C898.548340,674.864380 900.298889,676.651001 898.371521,679.953003 
	C896.384033,683.357910 896.141479,687.964844 890.064880,687.319641 
	C870.055115,685.194885 850.003113,683.467529 829.965454,681.607483 
	C818.213440,680.516479 806.458618,679.454590 794.702087,678.413147 
	C793.943420,678.345886 793.159302,678.566589 791.415344,678.762573 
	C798.824646,685.698181 805.551147,692.059570 812.348450,698.344360 
	C828.613159,713.382690 844.966064,728.326172 861.171448,743.428040 
	C868.549683,750.303833 868.362183,747.667603 863.799438,757.683350 
z"/>
<path fill="#000000" opacity="1.000000" stroke="none" 
	d="
M373.286926,154.323730 
	C373.247040,157.922913 373.764801,161.122925 372.609253,164.178970 
	C371.502747,167.105316 370.321655,170.003448 369.047302,173.233429 
	C372.479950,174.027878 375.687256,172.669189 378.949707,173.159180 
	C392.478424,175.191040 400.213501,183.641174 403.983124,196.003571 
	C408.019623,209.241135 401.966370,219.465668 392.489471,227.829742 
	C382.282013,236.838593 369.623688,242.035416 357.856842,248.587906 
	C350.001648,252.962143 341.938110,256.963745 334.106110,261.377563 
	C331.049255,263.100311 329.368317,263.189636 327.494598,259.680389 
	C310.474945,227.804733 293.304840,196.009216 276.094635,164.235825 
	C274.459290,161.216690 274.921936,159.536957 277.987518,157.923782 
	C292.428589,150.324585 306.744507,142.487259 321.191864,134.900192 
	C327.261169,131.712875 333.746490,129.352249 340.604645,128.770828 
	C358.252625,127.274658 369.718964,136.213669 373.286926,154.323730 
M331.772247,201.347198 
	C327.701904,203.601852 323.684113,205.959442 319.542419,208.074341 
	C316.860382,209.443863 316.480469,210.947113 317.947723,213.601730 
	C323.334198,223.347427 328.609985,233.157013 333.747101,243.036316 
	C335.375854,246.168655 336.976685,247.077194 340.335144,245.203568 
	C351.946289,238.725830 363.735443,232.567795 375.372406,226.135315 
	C379.593842,223.801834 383.505890,220.944717 386.656036,217.199310 
	C392.706024,210.006149 393.415741,202.086990 388.738586,194.151260 
	C383.966553,186.054550 376.349731,182.744476 367.089417,184.770569 
	C362.351318,185.807205 357.881470,187.584000 353.599426,189.834686 
	C346.536713,193.546936 339.490051,197.289719 331.772247,201.347198 
M331.978424,188.445328 
	C333.163300,187.835114 334.358765,187.244476 335.531311,186.611450 
	C342.711243,182.735291 350.146332,179.211105 355.618286,172.861053 
	C361.006287,166.608414 362.419067,159.705750 358.869354,152.014832 
	C355.324677,144.334839 349.310822,140.847900 340.925232,141.030289 
	C335.260101,141.153503 330.119446,143.008820 325.223663,145.567612 
	C314.741211,151.046295 304.339569,156.679565 293.910828,162.260757 
	C293.042175,162.725616 292.089630,163.146454 291.753632,164.906982 
	C297.834961,176.137970 304.145325,187.791916 310.674530,199.850037 
	C317.876373,195.987503 324.595551,192.383820 331.978424,188.445328 
z"/>
<path fill="#000000" opacity="1.000000" stroke="none" 
	d="
M674.085938,769.671997 
	C686.028992,762.989868 683.531982,763.815796 688.460388,773.627380 
	C704.757996,806.073303 720.768677,838.663696 737.155273,871.064270 
	C739.568298,875.835388 737.321533,877.135498 733.783325,878.744385 
	C730.453064,880.258789 727.715942,882.689941 725.203613,877.117493 
	C720.003967,865.584229 714.092896,854.370911 708.432373,843.046997 
	C707.576477,841.334839 706.990845,839.389709 705.251953,838.051025 
	C696.191650,867.461060 663.554565,874.965637 645.344421,866.381836 
	C624.222534,856.425537 612.390198,828.139954 620.589844,807.342468 
	C627.784241,789.094727 653.513123,771.124329 678.639832,783.264221 
	C678.023315,778.340027 673.755127,774.886414 674.085938,769.671997 
M681.662720,796.795410 
	C665.690857,786.321838 645.950989,789.833008 635.909668,804.933472 
	C627.811890,817.111084 629.637634,834.885132 640.696167,846.950867 
	C649.402771,856.450439 660.179688,860.262207 672.798584,856.054016 
	C685.385010,851.856628 694.212830,843.937683 695.809509,829.984863 
	C697.338196,816.625610 691.904053,806.021301 681.662720,796.795410 
z"/>
<path fill="#000000" opacity="1.000000" stroke="none" 
	d="
M884.217896,384.162109 
	C885.223389,396.664062 884.547974,400.104431 878.571777,412.299408 
	C889.980591,408.388702 900.762634,404.701141 911.538147,400.994659 
	C915.159363,399.749054 918.796448,398.539215 922.365967,397.157257 
	C925.190796,396.063599 926.843445,396.808319 927.500183,399.790222 
	C927.678101,400.597900 927.944214,401.411530 928.319153,402.146210 
	C930.584167,406.584961 929.326965,408.757904 924.458801,410.398071 
	C895.268250,420.232788 866.182495,430.378784 837.070679,440.446625 
	C830.464050,442.731476 823.826599,444.950958 817.326904,447.514069 
	C812.341187,449.480164 811.796692,446.012421 810.662598,442.808289 
	C809.543274,439.645416 808.326477,436.777039 813.183533,435.552612 
	C815.857239,434.878601 818.630737,434.084900 820.810303,432.316315 
	C820.970642,431.287537 820.247620,430.979126 819.683960,430.768524 
	C803.578064,424.750275 793.703186,406.523651 794.304932,390.007721 
	C795.026001,370.218323 805.676270,357.164612 823.930176,350.132111 
	C850.276428,339.981964 877.709351,353.032532 884.217896,384.162109 
M806.383606,395.054016 
	C810.976929,418.524872 828.350281,429.706268 849.595398,422.619751 
	C863.222595,418.074249 871.887573,408.978851 873.569275,394.284424 
	C874.852234,383.074127 867.162537,368.858795 857.378357,363.592804 
	C837.973328,353.148865 805.102478,365.799438 806.383606,395.054016 
z"/>
<path fill="#000000" opacity="1.000000" stroke="none" 
	d="
M135.469482,317.573364 
	C128.847214,315.775574 131.741684,312.107086 133.052765,308.602356 
	C134.442047,304.888641 135.942368,303.409149 140.356033,305.348724 
	C174.026642,320.145386 207.824509,334.652466 241.581467,349.252655 
	C242.345078,349.582916 243.093063,349.949310 243.848892,350.297607 
	C249.059769,352.699036 249.654526,359.132874 245.009430,362.597321 
	C243.718430,363.560181 242.507156,363.105591 241.255844,362.599030 
	C238.050461,361.301239 234.844238,360.005554 231.436539,358.627380 
	C240.362946,385.671173 231.300476,409.679352 209.036194,418.591797 
	C187.448608,427.233307 159.842667,416.363892 149.742569,395.846771 
	C139.927322,375.908295 148.883041,344.419281 175.290298,335.295319 
	C162.138077,328.297333 148.673889,323.666321 135.469482,317.573364 
M161.850037,360.435791 
	C160.979782,362.592041 159.955750,364.700195 159.264511,366.912384 
	C155.109055,380.210968 159.758591,393.207214 171.563583,401.522156 
	C184.342285,410.522949 200.586212,411.194397 211.265289,403.163239 
	C221.873459,395.185394 227.201248,381.031525 224.068359,369.150452 
	C220.791977,356.725189 208.662689,346.164337 195.539993,344.311096 
	C180.331085,342.163239 169.842941,347.028717 161.850037,360.435791 
z"/>
<path fill="#000000" opacity="1.000000" stroke="none" 
	d="
M644.563965,183.720398 
	C650.848267,202.852219 657.000732,221.632690 663.170593,240.466370 
	C656.706421,241.458481 649.083862,237.149689 647.237366,231.709641 
	C642.370422,217.371124 637.417175,203.060898 632.699707,188.673355 
	C631.493347,184.994095 629.899170,183.642395 626.272339,185.712341 
	C624.838074,186.530899 623.274170,187.288559 621.674805,187.625259 
	C608.768494,190.342224 602.103394,198.730804 599.549988,211.216293 
	C599.104858,213.392990 599.020081,217.008392 595.802612,216.903152 
	C592.571716,216.797455 589.295959,215.489212 586.586304,213.470978 
	C585.272400,212.492355 586.037048,211.042007 586.495850,209.790375 
	C599.840027,173.390717 613.209595,137.000320 626.499268,100.580788 
	C628.767395,94.364876 632.440857,98.787506 635.452759,99.289413 
	C639.015442,99.883110 639.746948,101.986580 638.443176,105.509682 
	C630.185303,127.824791 622.111023,150.207855 613.980469,172.570068 
	C613.417542,174.118286 612.889587,175.679230 612.357056,177.200943 
	C613.932129,178.408829 615.037964,177.272171 616.167908,176.811340 
	C633.891113,169.583344 651.789917,162.742157 669.230042,154.883774 
	C676.962891,151.399460 682.447815,155.119568 688.951477,157.173477 
	C688.001892,160.128983 685.783630,160.357422 684.073914,161.114639 
	C671.901245,166.505859 659.736206,171.920105 647.461853,177.072266 
	C644.215637,178.434860 642.818481,179.999435 644.563965,183.720398 
z"/>
<path fill="#000000" opacity="1.000000" stroke="none" 
	d="
M795.948608,759.548401 
	C799.311890,787.727234 775.000000,809.537415 751.431763,808.265625 
	C739.023804,807.596008 728.850220,802.066895 720.310791,793.194153 
	C717.782410,790.566956 718.550232,788.738525 720.890747,786.546143 
	C735.108765,773.228210 749.246216,759.824219 763.415100,746.453796 
	C764.626099,745.311035 765.803223,744.117737 767.111755,743.096008 
	C770.292664,740.612244 769.658508,738.759460 766.580078,736.612061 
	C754.942932,728.494446 739.215271,729.945862 727.461487,740.301392 
	C720.303528,746.607971 715.612000,754.329285 714.631104,763.839539 
	C714.187073,768.144653 712.275452,768.627258 708.741150,768.055908 
	C705.100769,767.467468 702.615601,766.707153 703.195618,761.884094 
	C705.452087,743.119812 720.328796,725.908508 739.263794,720.702209 
	C756.923462,715.846619 774.741028,722.443542 786.775146,738.275024 
	C791.496643,744.486450 794.593445,751.397278 795.948608,759.548401 
M779.279846,749.612793 
	C776.227356,745.772034 774.568787,749.676697 773.054382,751.080750 
	C760.488708,762.730713 748.089478,774.560364 735.653687,786.350098 
	C734.957214,787.010315 734.042480,787.604126 734.237366,788.804932 
	C744.683472,798.706299 760.311401,799.276245 772.062073,790.184570 
	C784.939209,780.221252 787.872314,764.717773 779.279846,749.612793 
z"/>
<path fill="#000000" opacity="1.000000" stroke="none" 
	d="
M689.688599,246.223145 
	C697.819641,258.748474 708.666687,265.669891 723.635803,264.898743 
	C727.061768,264.722229 729.489319,265.065979 729.399536,269.481262 
	C729.327454,273.026459 730.247437,275.918457 724.736877,276.636505 
	C703.039673,279.463837 677.910828,260.458160 673.848450,237.566711 
	C669.181702,211.269104 691.589966,183.720093 718.232483,184.095413 
	C749.693115,184.538635 772.784668,216.935715 756.564636,247.250168 
	C750.612610,258.374298 750.597900,258.389069 740.664490,251.159180 
	C725.711853,240.276093 710.790344,229.350189 695.817139,218.495514 
	C694.247070,217.357285 692.857910,215.740509 689.982727,215.693924 
	C684.477051,225.574585 684.540283,235.644562 689.688599,246.223145 
M723.082947,196.121338 
	C714.543396,195.120316 706.997559,197.415558 700.257446,202.743729 
	C697.056580,205.274063 697.042236,207.107941 700.480591,209.558701 
	C712.529724,218.147079 724.406982,226.976074 736.399841,235.644135 
	C739.186157,237.658005 741.667725,240.205032 745.047668,241.247818 
	C755.255920,229.115707 750.489685,201.425720 723.082947,196.121338 
z"/>
<path fill="#000000" opacity="1.000000" stroke="none" 
	d="
M205.994324,606.954590 
	C187.290527,627.101501 155.881439,628.598206 138.501343,609.942505 
	C126.943611,597.536560 123.560455,582.565735 128.631302,566.365112 
	C133.803421,549.840942 146.192978,541.140808 162.581116,537.308044 
	C166.693329,536.346313 167.530472,538.780029 168.124817,541.727600 
	C171.870117,560.301697 175.575882,578.883728 179.297958,597.462463 
	C179.559082,598.765930 179.850861,600.063232 180.120544,601.365051 
	C181.627426,608.639282 182.619766,609.046570 189.089554,605.114685 
	C211.490646,591.500854 207.231339,561.443176 191.340439,548.678711 
	C188.811920,546.647644 186.671127,545.179016 189.588089,541.582031 
	C193.544678,536.703125 194.048218,536.395813 199.106293,540.152344 
	C218.163727,554.305847 221.757782,587.840515 205.994324,606.954590 
M163.521729,568.893066 
	C161.711761,563.259338 161.799408,557.113403 159.215485,551.720276 
	C149.606247,553.348389 140.511917,561.918823 138.694321,572.113525 
	C136.463638,584.625305 138.809097,596.063843 149.525726,604.385132 
	C155.938293,609.364319 163.124908,611.163696 171.738510,609.643066 
	C168.917160,595.749695 166.275360,582.740540 163.521729,568.893066 
z"/>
<path fill="#000000" opacity="1.000000" stroke="none" 
	d="
M412.114624,187.398193 
	C414.539764,171.788773 425.948181,166.811081 438.793335,163.762360 
	C446.867188,161.846069 455.039917,160.235870 463.248810,159.042542 
	C467.762726,158.386353 468.208557,156.185486 467.444824,152.533997 
	C464.674805,139.290146 455.190948,133.144089 441.022614,135.593353 
	C431.094055,137.309708 422.297516,141.329391 415.214111,148.691086 
	C414.529419,149.402679 413.913300,150.241592 412.637177,150.247803 
	C410.831573,149.730621 410.119812,147.845917 408.773865,146.670731 
	C405.706207,143.992264 405.918640,141.637436 408.946838,138.874817 
	C418.372742,130.275528 429.537933,125.646332 441.984497,123.675606 
	C447.142181,122.858971 452.260406,122.956337 457.329193,124.127159 
	C470.497620,127.168907 477.218750,136.500488 479.809265,148.835022 
	C483.460938,166.222275 486.190033,183.801331 489.594727,201.243515 
	C490.721954,207.018265 486.436493,205.855103 483.605713,206.712097 
	C480.501038,207.652023 477.970062,207.590607 477.557343,203.385788 
	C477.364899,201.424850 476.729462,199.507370 476.310730,197.641235 
	C475.369507,197.093872 474.988525,197.787689 474.634613,198.288223 
	C464.753357,212.263565 450.563141,216.027466 434.632263,214.244644 
	C420.346497,212.645935 412.044891,202.351242 412.114624,187.398193 
M425.276733,186.076218 
	C423.680908,198.353745 432.617554,204.442734 442.535278,203.883255 
	C444.194000,203.789673 445.860413,203.790405 447.513000,203.636887 
	C464.808777,202.030121 475.207428,187.811630 471.035767,171.747986 
	C470.354462,169.124512 469.356354,167.989563 466.641541,168.525772 
	C457.856018,170.261032 448.993378,171.664658 440.291229,173.743546 
	C433.776306,175.299927 427.366119,177.576828 425.276733,186.076218 
z"/>
<path fill="#000000" opacity="1.000000" stroke="none" 
	d="
M502.961243,905.712769 
	C502.045319,913.084534 500.692291,919.999756 500.538422,926.941650 
	C500.416809,932.428711 497.812866,932.781067 493.620239,932.306641 
	C476.599274,930.380371 459.565918,928.563293 442.539581,926.684082 
	C436.256165,925.990601 429.990295,925.114319 423.695648,924.554871 
	C419.602112,924.191101 419.345795,921.654968 419.830719,918.580872 
	C420.319824,915.480408 420.434174,912.130310 425.233948,912.712708 
	C440.898621,914.613647 456.581207,916.367676 472.259399,918.156494 
	C475.066650,918.476746 477.889496,918.658447 480.698486,918.965088 
	C487.656891,919.724548 487.726257,919.747131 488.554291,912.725159 
	C489.876862,901.509155 490.975952,890.265381 492.424896,879.066406 
	C492.891541,875.459778 490.798920,875.259033 488.362823,874.993958 
	C473.806610,873.409851 459.249756,871.831726 444.694489,870.239258 
	C443.042206,870.058472 441.395935,869.816956 439.750946,869.575745 
	C432.848541,868.563538 433.112183,868.576233 433.535767,861.842957 
	C433.761841,858.249512 435.031586,857.228088 438.415741,857.626038 
	C451.943787,859.216797 465.487427,860.674561 479.023346,862.198730 
	C482.655731,862.607849 486.282654,863.067017 489.909546,863.523499 
	C492.845795,863.893066 494.281189,862.448181 494.587708,859.669067 
	C495.971252,847.124329 497.327637,834.576599 498.727448,822.033691 
	C498.996429,819.623535 498.282898,816.299927 500.905548,815.328369 
	C504.189941,814.111755 507.887054,815.237915 511.103455,816.453552 
	C513.047974,817.188416 512.372192,819.714783 512.185303,821.458313 
	C510.484253,837.326172 508.683136,853.183350 506.942810,869.047058 
	C505.618591,881.118042 504.340149,893.194031 502.961243,905.712769 
z"/>
<path fill="#000000" opacity="1.000000" stroke="none" 
	d="
M301.702637,841.488586 
	C286.156677,833.776550 276.174652,822.249878 274.604706,804.857239 
	C272.996307,787.039124 280.434235,772.948669 294.476166,762.629578 
	C308.175934,752.562073 323.292938,752.080811 338.514282,759.142273 
	C356.252716,767.371460 367.060822,785.625061 365.178986,803.377625 
	C363.049164,823.469360 349.021942,839.990906 329.801666,844.654419 
	C320.270844,846.966980 310.971405,845.690796 301.702637,841.488586 
M311.885406,832.753845 
	C335.693695,838.840149 355.880890,813.825256 352.380157,793.423462 
	C350.132263,780.323059 341.595764,772.235779 329.419800,768.104736 
	C317.701752,764.129089 307.467926,767.485474 298.782013,775.968079 
	C281.001801,793.332153 283.301849,818.377563 303.722168,829.531067 
	C306.042908,830.798645 308.623871,831.589844 311.885406,832.753845 
z"/>
<path fill="#000000" opacity="1.000000" stroke="none" 
	d="
M212.389709,720.456604 
	C206.294205,731.417969 207.795425,740.989075 216.982346,751.222229 
	C225.399002,760.597534 237.595367,763.408020 248.792816,758.562317 
	C253.279831,756.620605 257.119476,753.704956 260.870239,750.638367 
	C270.671783,742.624695 280.660034,734.828430 290.239044,726.557739 
	C295.677643,721.861938 296.754059,727.290039 299.292847,729.680603 
	C302.162781,732.383118 301.729675,734.345703 298.611389,736.844971 
	C278.077332,753.303589 257.661224,769.910278 237.301117,786.584045 
	C234.661636,788.745605 232.633820,789.168945 230.885895,786.010986 
	C229.382599,783.295044 224.058167,781.216492 229.155548,777.135132 
	C231.189240,775.506836 233.095215,773.718994 234.996826,772.058289 
	C233.910522,769.968689 232.246552,770.469971 230.842575,770.324585 
	C210.740250,768.242615 193.088028,746.334412 195.740448,726.422852 
	C197.181000,715.608765 204.195908,708.182556 212.166214,701.615601 
	C223.608200,692.188171 235.296875,683.058105 246.656570,673.534302 
	C249.829178,670.874451 251.600479,670.754272 254.173279,674.183594 
	C259.008820,680.628723 259.142426,680.434143 252.616867,685.669739 
	C241.572830,694.530518 230.573227,703.447144 219.605347,712.402100 
	C216.893692,714.616150 214.416840,717.104614 212.389709,720.456604 
z"/>
<path fill="#000000" opacity="1.000000" stroke="none" 
	d="
M793.631104,247.622879 
	C794.429626,246.986176 794.937012,246.553635 795.464355,246.146912 
	C800.954468,241.912384 805.687378,243.578262 807.739929,250.348434 
	C808.258362,252.058258 807.323486,252.826660 806.285095,253.663834 
	C803.846252,255.630188 801.381653,257.564514 797.995911,260.250946 
	C808.126953,261.086609 816.369446,264.188232 823.014343,270.636963 
	C834.062134,281.358551 840.472778,293.747467 836.137207,309.625549 
	C833.974670,317.545074 828.562256,323.304474 822.330261,328.149719 
	C809.450134,338.163879 796.279480,347.803894 783.359985,357.768402 
	C780.491211,359.981049 778.725037,359.717834 777.032654,356.686249 
	C776.468567,355.675690 775.766968,354.708923 774.976868,353.863678 
	C772.466431,351.178314 772.834656,349.289246 775.882507,347.046234 
	C787.550049,338.459534 799.029541,329.617401 810.588928,320.883484 
	C815.270203,317.346405 819.659546,313.563385 822.326416,308.157715 
	C824.706848,303.332855 825.461365,298.393982 823.782715,293.175323 
	C818.066162,275.402283 798.512695,261.567017 777.869080,276.030548 
	C765.879517,284.430786 754.205688,293.318420 742.794739,302.490509 
	C737.894348,306.429413 736.693909,302.622650 734.403381,299.985138 
	C731.966431,297.178925 730.611938,294.996277 734.670532,291.990082 
	C754.339722,277.421082 773.809021,262.582245 793.631104,247.622879 
z"/>
<path fill="#000000" opacity="1.000000" stroke="none" 
	d="
M178.888397,505.846069 
	C186.633224,506.577484 193.922760,507.235291 201.201569,507.995819 
	C204.816635,508.373535 208.091980,508.857300 207.274170,514.136414 
	C206.187180,521.153137 206.122910,521.682495 199.996201,521.186401 
	C189.388718,520.327515 178.795746,519.275696 168.206848,518.204407 
	C152.988922,516.664917 137.798874,514.807739 122.558754,513.548218 
	C115.796410,512.989319 119.006279,508.657440 118.819901,505.592682 
	C118.586967,501.762329 120.805016,500.697876 124.251617,501.143799 
	C126.866188,501.482086 129.500397,501.668579 133.418457,502.047729 
	C123.048805,491.918060 120.476952,480.231781 121.736145,467.468384 
	C123.824760,446.297882 138.483047,434.029999 159.315125,435.347961 
	C175.567734,436.376160 191.765045,438.271881 207.989822,439.750305 
	C213.647644,440.265839 213.698334,440.684021 213.304214,448.185242 
	C213.040253,453.209045 210.334686,453.113922 206.576508,452.728638 
	C191.342422,451.166962 176.100311,449.653595 160.837967,448.406403 
	C145.813599,447.178650 135.978973,454.647278 133.516983,468.721802 
	C130.679123,484.945038 138.303085,498.585968 152.713196,502.594879 
	C161.096130,504.927032 169.817139,505.045593 178.888397,505.846069 
z"/>
<path fill="#000000" opacity="1.000000" stroke="none" 
	d="
M508.611572,189.250092 
	C494.293396,164.416016 502.406158,134.199188 526.500061,123.188286 
	C542.304871,115.965477 557.900635,117.277046 572.707825,126.533997 
	C575.560608,128.317413 577.911255,130.685852 579.993164,133.303894 
	C584.606445,139.105118 582.983459,143.185852 575.599854,144.729172 
	C573.630005,145.140930 572.946960,143.875412 572.033325,142.705322 
	C563.094360,131.257858 551.171021,128.167374 537.714783,131.680313 
	C524.863892,135.035187 517.693054,144.282959 515.332886,157.161285 
	C511.258789,179.391510 523.750732,195.904419 546.122070,197.431931 
	C554.130798,197.978760 561.534790,195.407455 567.644287,189.784363 
	C571.055420,186.644821 572.811218,187.224457 577.395508,191.872574 
	C580.578308,195.099670 577.483398,196.703918 575.845093,198.342865 
	C559.332397,214.862244 527.773499,212.265442 511.525208,193.132004 
	C510.557526,191.992508 509.708008,190.752701 508.611572,189.250092 
z"/>
<path fill="#000000" opacity="1.000000" stroke="none" 
	d="
M153.136765,650.373474 
	C155.968079,648.873657 157.066635,650.380981 157.996536,652.409668 
	C160.564240,658.011353 163.300262,663.539673 165.721649,669.203125 
	C167.014130,672.226013 168.502884,672.622864 171.447372,671.223633 
	C185.285797,664.647949 199.262283,658.363220 213.114670,651.816284 
	C226.235016,645.615356 227.645676,633.589233 216.480392,624.222961 
	C215.476334,623.380676 214.451691,622.563049 213.444992,621.740784 
	C213.857910,618.640137 216.385391,617.208069 217.906891,615.118225 
	C219.074356,613.514648 220.561874,614.132629 221.885941,615.009399 
	C231.232590,621.199097 235.771637,630.261902 236.165848,641.122070 
	C236.533859,651.260559 230.637695,657.993408 221.906067,662.163818 
	C207.330856,669.125183 192.665314,675.905334 177.915909,682.488708 
	C174.159836,684.165161 172.975632,685.920959 175.284332,689.522705 
	C175.994141,690.630066 176.366135,691.952576 176.904846,693.171204 
	C179.396149,698.806824 177.858429,701.520935 171.634796,702.722717 
	C170.264603,702.987305 169.337463,702.678467 168.688614,701.546997 
	C168.026886,700.392944 167.430374,699.197388 166.870529,697.989746 
	C162.817490,689.246826 164.908768,688.583862 154.023682,693.521851 
	C153.114044,693.934448 152.164688,694.295654 151.329559,694.830322 
	C147.182816,697.485046 144.645905,696.778259 142.752899,691.859680 
	C140.342743,685.597412 140.007202,685.726562 146.441452,682.800415 
	C157.382996,677.824280 157.380066,677.825623 152.420227,666.783203 
	C151.396942,664.504944 150.416351,662.207642 149.395493,659.928284 
	C146.528992,653.527832 146.524780,653.529724 153.136765,650.373474 
z"/>
<path fill="#000000" opacity="1.000000" stroke="none" 
	d="
M379.869507,871.194214 
	C371.859467,874.318054 364.179108,873.668152 356.435333,871.683228 
	C352.892822,870.775208 351.932556,869.193359 353.350555,865.572693 
	C355.982544,858.851929 355.784485,858.774414 362.943970,860.628784 
	C376.186523,864.058899 388.230255,858.810852 394.248383,845.677490 
	C399.368774,834.503235 403.215179,822.744263 407.595734,811.232788 
	C408.543243,808.742920 409.340637,806.196289 410.248871,803.690979 
	C412.572937,797.280334 412.498993,797.568970 418.989716,799.465332 
	C423.560730,800.800964 424.575012,802.552368 422.827209,807.226929 
	C413.848175,831.241699 405.121124,855.352905 396.583374,879.528381 
	C395.014587,883.970581 393.083344,884.801514 388.912079,883.068604 
	C382.849304,880.549683 382.709045,880.591553 384.789154,874.993896 
	C385.596497,872.821228 386.272247,870.599670 387.262909,867.638123 
	C384.509094,868.976440 382.370148,870.015991 379.869507,871.194214 
z"/>
<path fill="#000000" opacity="1.000000" stroke="none" 
	d="
M829.783081,516.293823 
	C822.405884,518.411072 817.290222,516.193176 815.764771,510.554626 
	C814.419006,505.580200 817.117554,500.794342 822.165649,499.202759 
	C826.509216,497.833374 831.201721,499.618866 833.361572,503.462891 
	C835.895813,507.973175 834.902222,511.884338 829.783081,516.293823 
z"/>
<path fill="#000000" opacity="1.000000" stroke="none" 
	d="
M556.391357,829.321960 
	C551.043640,829.968323 547.528137,827.893005 545.858093,823.252014 
	C544.347107,819.052795 545.593933,815.293396 549.084351,812.580139 
	C552.457703,809.958008 556.195557,809.945374 559.780273,812.258301 
	C563.033142,814.357117 564.307922,817.644592 563.873718,821.304993 
	C563.383850,825.434753 561.037109,828.321045 556.391357,829.321960 
z"/>
<path fill="#000000" opacity="1.000000" stroke="none" 
	d="
M272.150940,305.512329 
	C269.559540,300.663361 270.714233,296.709900 274.324036,293.595184 
	C277.543915,290.816895 281.389740,290.920532 284.997620,292.936707 
	C289.024567,295.187042 289.886017,298.999481 289.216858,303.223389 
	C288.673737,306.651459 286.500519,308.857025 283.224396,309.834015 
	C278.662842,311.194336 275.162872,309.412598 272.150940,305.512329 
z"/>
</svg>